<svg width="1500" height="1500" viewBox="0 0 1500 1500" fill="none" xmlns="http://www.w3.org/2000/svg">
<path d="M547.764 250L1004.84 265.93L1009.2 436.126H736.588V1250H517.623V436.126H250V250H547.764Z" fill="white"/>
<path d="M1015.44 1250L855.115 896.978H736.588V1250H517.623V250H875.078C982.793 250 1067.01 276.328 1127.73 328.984C1188.45 381.639 1218.81 456.044 1218.81 552.198C1218.81 621.795 1206.02 679.487 1180.44 725.275C1154.87 771.062 1114.84 808.15 1060.35 836.538L1250 1239.7V1250H1015.44ZM736.588 436.126V710.852H875.078C916.667 710.852 947.962 698.833 968.964 674.794C989.967 650.755 1000.47 617.216 1000.47 574.176C1000.47 531.135 989.863 497.367 968.653 472.871C947.442 448.374 916.251 436.126 875.078 436.126H736.588Z" fill="white"/>
</svg>
